<svg xmlns="http://www.w3.org/2000/svg" xmlns:xlink="http://www.w3.org/1999/xlink" viewBox="0 0 312.55 289.65"><defs><style>.cls-1{fill:url(#linear-gradient);}.cls-14,.cls-2,.cls-8{opacity:0.1;}.cls-2{fill:url(#linear-gradient-2);}.cls-15,.cls-3,.cls-9{opacity:0.5;}.cls-3{fill:url(#linear-gradient-3);}.cls-4{fill:url(#linear-gradient-4);}.cls-5{fill:url(#linear-gradient-5);}.cls-6{fill:url(#linear-gradient-6);}.cls-7{fill:url(#linear-gradient-7);}.cls-8{fill:url(#linear-gradient-8);}.cls-9{fill:url(#linear-gradient-9);}.cls-10{fill:url(#linear-gradient-10);}.cls-11{fill:url(#linear-gradient-11);}.cls-12{fill:url(#linear-gradient-12);}.cls-13{fill:url(#linear-gradient-13);}.cls-14{fill:url(#linear-gradient-14);}.cls-15{fill:url(#linear-gradient-15);}.cls-16{fill:url(#linear-gradient-16);}.cls-17{fill:url(#linear-gradient-17);}.cls-18{fill:url(#linear-gradient-18);}</style><linearGradient id="linear-gradient" x1="103.04" y1="-920.91" x2="236.55" y2="-796.29" gradientTransform="translate(231.2 1051.96) rotate(-22.18) scale(1.06)" gradientUnits="userSpaceOnUse"><stop offset="0" stop-color="#2be8fa"/><stop offset="0.15" stop-color="#2ce5fa"/><stop offset="0.27" stop-color="#30dafa"/><stop offset="0.39" stop-color="#36c9f9"/><stop offset="0.49" stop-color="#3fb1f9"/><stop offset="0.51" stop-color="#40adf9"/><stop offset="1" stop-color="#477ef7"/></linearGradient><linearGradient id="linear-gradient-2" x1="123.27" y1="-846.31" x2="191.34" y2="-846.31" gradientTransform="translate(231.2 1051.96) rotate(-22.18) scale(1.06)" gradientUnits="userSpaceOnUse"><stop offset="0" stop-color="#fff"/><stop offset="0.16" stop-color="#fff" stop-opacity="0.99"/><stop offset="0.29" stop-color="#fff" stop-opacity="0.95"/><stop offset="0.41" stop-color="#fff" stop-opacity="0.88"/><stop offset="0.52" stop-color="#fff" stop-opacity="0.78"/><stop offset="0.63" stop-color="#fff" stop-opacity="0.66"/><stop offset="0.74" stop-color="#fff" stop-opacity="0.51"/><stop offset="0.84" stop-color="#fff" stop-opacity="0.33"/><stop offset="0.94" stop-color="#fff" stop-opacity="0.12"/><stop offset="1" stop-color="#fff" stop-opacity="0"/></linearGradient><linearGradient id="linear-gradient-3" x1="-852.75" y1="1883.54" x2="-651.19" y2="1883.54" gradientTransform="matrix(0.43, -0.9, 0.9, 0.43, -1296.5, -1351.73)" gradientUnits="userSpaceOnUse"><stop offset="0" stop-color="#42a1f8"/><stop offset="1" stop-color="#fff" stop-opacity="0"/></linearGradient><linearGradient id="linear-gradient-4" x1="-834.27" y1="1954.18" x2="-749.1" y2="1858.8" gradientTransform="matrix(0.43, -0.9, 0.9, 0.43, -1296.5, -1351.73)" gradientUnits="userSpaceOnUse"><stop offset="0" stop-color="#40a6f9"/><stop offset="0.9" stop-color="#2de1fa" stop-opacity="0.11"/><stop offset="1" stop-color="#2be8fa" stop-opacity="0"/></linearGradient><linearGradient id="linear-gradient-5" x1="251.68" y1="-923.8" x2="56.88" y2="-689.16" xlink:href="#linear-gradient"/><linearGradient id="linear-gradient-6" x1="-815.29" y1="2010.32" x2="-701.9" y2="1845.11" gradientTransform="matrix(0.43, -0.9, 0.9, 0.43, -1296.5, -1351.73)" gradientUnits="userSpaceOnUse"><stop offset="0" stop-color="#42a1f8"/><stop offset="0.51" stop-color="#2edefa"/><stop offset="0.64" stop-color="#2de1fa" stop-opacity="0.73"/><stop offset="1" stop-color="#2be8fa" stop-opacity="0"/></linearGradient><linearGradient id="linear-gradient-7" x1="-40.4" y1="-2148.67" x2="9.48" y2="-2102.11" gradientTransform="translate(-785.77 2166.89) rotate(26.22) scale(1.06)" xlink:href="#linear-gradient"/><linearGradient id="linear-gradient-8" x1="-32.84" y1="-2120.8" x2="-7.41" y2="-2120.8" gradientTransform="translate(-785.77 2166.89) rotate(26.22) scale(1.06)" xlink:href="#linear-gradient-2"/><linearGradient id="linear-gradient-9" x1="-34.48" y1="737.96" x2="40.82" y2="737.96" gradientTransform="translate(-2.92 -571.5) rotate(-15.85)" xlink:href="#linear-gradient-3"/><linearGradient id="linear-gradient-10" x1="-27.29" y1="764.24" x2="4.53" y2="728.6" gradientTransform="translate(-2.92 -571.5) rotate(-15.85)" xlink:href="#linear-gradient-4"/><linearGradient id="linear-gradient-11" x1="15.13" y1="-2149.75" x2="-57.65" y2="-2062.09" gradientTransform="translate(-785.77 2166.89) rotate(26.22) scale(1.06)" xlink:href="#linear-gradient"/><linearGradient id="linear-gradient-12" x1="-20.49" y1="785.32" x2="21.87" y2="723.6" gradientTransform="translate(-2.92 -571.5) rotate(-15.85)" xlink:href="#linear-gradient-6"/><linearGradient id="linear-gradient-13" x1="-529.04" y1="-2595.33" x2="-445.5" y2="-2517.36" gradientTransform="translate(-1543.96 2328.15) rotate(50.86) scale(1.06)" xlink:href="#linear-gradient"/><linearGradient id="linear-gradient-14" x1="-516.38" y1="-2548.65" x2="-473.79" y2="-2548.65" gradientTransform="translate(-1543.96 2328.15) rotate(50.86) scale(1.06)" xlink:href="#linear-gradient-2"/><linearGradient id="linear-gradient-15" x1="-124.66" y1="66.23" x2="1.45" y2="66.23" gradientTransform="matrix(0.99, 0.15, -0.15, 0.99, 309.52, 165.69)" xlink:href="#linear-gradient-3"/><linearGradient id="linear-gradient-16" x1="-112.62" y1="110.24" x2="-59.32" y2="50.56" gradientTransform="matrix(0.99, 0.15, -0.15, 0.99, 309.52, 165.69)" xlink:href="#linear-gradient-4"/><linearGradient id="linear-gradient-17" x1="-436.04" y1="-2597.14" x2="-557.92" y2="-2450.33" gradientTransform="translate(-1543.96 2328.15) rotate(50.86) scale(1.06)" xlink:href="#linear-gradient"/><linearGradient id="linear-gradient-18" x1="-101.23" y1="145.56" x2="-30.28" y2="42.18" gradientTransform="matrix(0.99, 0.15, -0.15, 0.99, 309.52, 165.69)" xlink:href="#linear-gradient-6"/></defs><title>junggl logo</title><g id="Layer_2" data-name="Layer 2"><g id="Layer_1-2" data-name="Layer 1"><path class="cls-1" d="M7,.73c-42,249.33,117.6,284,132.17,286.67C100.38,225.08,29,53.05,7.84,1.21Z"/><path class="cls-2" d="M7.16.46c-42,249.34,117.6,284,132.17,286.67A240.91,240.91,0,0,1,70.16,235C-11.19,146.13,4.56,24.05,8,1Z"/><path class="cls-3" d="M6.52,0S224.76,111.85,139.74,288.07C139.74,288.07,170.67,126.32,6.52,0Z"/><path class="cls-4" d="M7.92,1.54c.19,35.91,5.47,104,44.14,177A380.55,380.55,0,0,0,138.6,287.4Z"/><path class="cls-5" d="M7.89,2C29,53.61,99.94,224.74,138.56,286.74l1.06.18S234.51,134.55,7.89,2Z"/><path class="cls-6" d="M139.84,286.81a528.27,528.27,0,0,0-31.25-122.39A532.11,532.11,0,0,0,7.17.32C28,12.89,111.9,66.82,137.69,171.92,149.33,219.33,145.05,260.51,139.84,286.81Z"/><path class="cls-7" d="M225.32,83.52c-80.08,50.11-50.17,103.31-47.29,108,7.78-26.31,38.13-88.91,47.35-107.69Z"/><path class="cls-8" d="M225.42,83.49c-80.07,50.11-50.16,103.31-47.29,108a90.12,90.12,0,0,1-2.6-32.25c4.65-44.78,42.66-70.66,50-75.44Z"/><path class="cls-9" d="M225.39,83.2s22.9,88.71-47.42,108.67C178,191.87,230.83,160.39,225.39,83.2Z"/><path class="cls-10" d="M225.56,83.78A141.63,141.63,0,0,0,178.13,191.2Z"/><path class="cls-11" d="M225.16,84.09c-9.17,18.68-39.37,81-47.11,107.12.14.23.22.34.22.34S244.37,180.26,225.16,84.09Z"/><path class="cls-12" d="M178.35,191.59a197.9,197.9,0,0,0,26.44-39.09,199,199,0,0,0,20.68-69c1.65,8.93,7.4,45.75-15.56,79A99.26,99.26,0,0,1,178.35,191.59Z"/><path class="cls-13" d="M312.21,156c-156.9,20.35-148.52,122.22-147.44,131.42,30.21-34.6,120.14-108.71,147.3-130.85C312.11,156.39,312.16,156.2,312.21,156Z"/><path class="cls-14" d="M312.39,156C155.5,176.39,163.87,278.26,165,287.46a150.92,150.92,0,0,1,18.56-50.9c38.35-64.92,114.29-77.77,128.74-79.95Z"/><path class="cls-15" d="M312.55,155.57s-27.1,151-148.08,132.31C164.47,287.88,266.92,276.87,312.55,155.57Z"/><path class="cls-16" d="M312.4,156.57A237.15,237.15,0,0,0,165.17,287Z"/><path class="cls-17" d="M311.58,156.76c-27,22-116.48,95.74-146.53,130.17,0,.44.08.67.08.67S273.64,316.58,311.58,156.76Z"/><path class="cls-18" d="M165.24,287.71a330.66,330.66,0,0,0,67.54-41A333,333,0,0,0,312.48,156c-3.72,14.75-20.68,74.81-78.87,109.43A166.12,166.12,0,0,1,165.24,287.71Z"/></g></g></svg>